<svg xmlns="http://www.w3.org/2000/svg" version="1.1" xmlns:xlink="http://www.w3.org/1999/xlink" xmlns:svgjs="http://svgjs.dev/svgjs" width="1500" height="397" viewBox="0 0 1500 397"><g transform="matrix(1,0,0,1,-0.9090909090909918,0.8325503035481461)"><svg viewBox="0 0 396 105" data-background-color="#0b022d" preserveAspectRatio="xMidYMid meet" height="397" width="1500" xmlns="http://www.w3.org/2000/svg" xmlns:xlink="http://www.w3.org/1999/xlink"><g id="tight-bounds" transform="matrix(1,0,0,1,0.2400000000000091,-0.22019592411223243)"><svg viewBox="0 0 395.52 105.44039184822448" height="105.44039184822448" width="395.52"><g><svg viewBox="0 0 563.7685855766 150.29323567687092" height="105.44039184822448" width="395.52"><g transform="matrix(1,0,0,1,0,20.771351674589255)"><svg viewBox="0 0 395.52 108.75053232769241" height="108.75053232769241" width="395.52"><g id="textblocktransform"><svg viewBox="0 0 395.52 108.75053232769241" height="108.75053232769241" width="395.52" id="textblock"><g><svg viewBox="0 0 395.52 76.05749800796812" height="76.05749800796812" width="395.52"><g transform="matrix(1,0,0,1,0,0)"><svg width="395.52" viewBox="2.85 -35.45 188.24 36.2" height="76.05749800796812" data-palette-color="#f7fff7"><path d="M19.55 0.75L19.55 0.75Q15.65 0.75 12.55-0.45 9.45-1.65 7.3-3.98 5.15-6.3 4-9.65 2.85-13 2.85-17.35L2.85-17.35Q2.85-21.7 4.17-25.05 5.5-28.4 7.8-30.73 10.1-33.05 13.2-34.25 16.3-35.45 19.85-35.45L19.85-35.45Q22-35.45 23.75-35.13 25.5-34.8 26.8-34.4 28.1-34 28.95-33.55 29.8-33.1 30.15-32.9L30.15-32.9 28.3-27.75Q27.1-28.5 24.88-29.18 22.65-29.85 20.05-29.85L20.05-29.85Q17.8-29.85 15.85-29.08 13.9-28.3 12.48-26.75 11.05-25.2 10.25-22.85 9.45-20.5 9.45-17.4L9.45-17.4Q9.45-14.65 10.08-12.35 10.7-10.05 12-8.38 13.3-6.7 15.3-5.78 17.3-4.85 20.1-4.85L20.1-4.85Q23.45-4.85 25.55-5.53 27.65-6.2 28.8-6.8L28.8-6.8 30.5-1.65Q29.9-1.25 28.88-0.85 27.85-0.45 26.45-0.08 25.05 0.3 23.3 0.53 21.55 0.75 19.55 0.75ZM44.95-4.25L44.95-4.25Q47.75-4.25 49.2-4.55L49.2-4.55 49.2-11.25Q48.7-11.4 47.75-11.55 46.8-11.7 45.65-11.7L45.65-11.7Q44.65-11.7 43.62-11.55 42.6-11.4 41.77-11 40.95-10.6 40.45-9.88 39.95-9.15 39.95-8.05L39.95-8.05Q39.95-5.9 41.3-5.08 42.65-4.25 44.95-4.25ZM44.45-26.8L44.45-26.8Q47.45-26.8 49.5-26.05 51.55-25.3 52.77-23.95 54-22.6 54.52-20.68 55.05-18.75 55.05-16.45L55.05-16.45 55.05-0.6Q53.65-0.3 50.82 0.13 48 0.55 44.45 0.55L44.45 0.55Q42.1 0.55 40.15 0.1 38.2-0.35 36.82-1.35 35.45-2.35 34.67-3.95 33.9-5.55 33.9-7.9L33.9-7.9Q33.9-10.15 34.77-11.7 35.65-13.25 37.15-14.23 38.65-15.2 40.62-15.63 42.6-16.05 44.75-16.05L44.75-16.05Q45.75-16.05 46.85-15.93 47.95-15.8 49.2-15.5L49.2-15.5 49.2-16.5Q49.2-17.55 48.95-18.5 48.7-19.45 48.07-20.18 47.45-20.9 46.42-21.3 45.4-21.7 43.85-21.7L43.85-21.7Q41.75-21.7 40-21.4 38.25-21.1 37.15-20.7L37.15-20.7 36.4-25.6Q37.55-26 39.75-26.4 41.95-26.8 44.45-26.8ZM62.45 0L62.45-25.3Q64.2-25.8 67-26.25 69.8-26.7 73.2-26.7L73.2-26.7Q76.4-26.7 78.55-25.83 80.7-24.95 81.97-23.38 83.25-21.8 83.77-19.58 84.3-17.35 84.3-14.7L84.3-14.7 84.3 0 78.25 0 78.25-13.75Q78.25-15.85 77.97-17.32 77.7-18.8 77.07-19.73 76.45-20.65 75.37-21.08 74.3-21.5 72.75-21.5L72.75-21.5Q71.59-21.5 70.34-21.35 69.09-21.2 68.5-21.1L68.5-21.1 68.5 0 62.45 0ZM91.39-10.4L91.39-33.05 97.44-34.05 97.44-26.15 106.74-26.15 106.74-21.1 97.44-21.1 97.44-10.45Q97.44-7.3 98.44-5.95 99.44-4.6 101.84-4.6L101.84-4.6Q103.49-4.6 104.77-4.95 106.04-5.3 106.79-5.6L106.79-5.6 107.79-0.8Q106.74-0.35 105.04 0.13 103.34 0.6 101.04 0.6L101.04 0.6Q98.24 0.6 96.37-0.15 94.49-0.9 93.39-2.33 92.29-3.75 91.84-5.78 91.39-7.8 91.39-10.4L91.39-10.4ZM110.69-12.95L110.69-12.95Q110.69-16.4 111.72-19 112.74-21.6 114.44-23.33 116.14-25.05 118.34-25.93 120.54-26.8 122.84-26.8L122.84-26.8Q128.24-26.8 131.27-23.45 134.29-20.1 134.29-13.45L134.29-13.45Q134.29-12.95 134.27-12.33 134.24-11.7 134.19-11.2L134.19-11.2 116.94-11.2Q117.19-8.05 119.17-6.33 121.14-4.6 124.89-4.6L124.89-4.6Q127.09-4.6 128.92-5 130.74-5.4 131.79-5.85L131.79-5.85 132.59-0.9Q132.09-0.65 131.22-0.38 130.34-0.1 129.22 0.13 128.09 0.35 126.79 0.5 125.49 0.65 124.14 0.65L124.14 0.65Q120.69 0.65 118.14-0.38 115.59-1.4 113.94-3.23 112.29-5.05 111.49-7.53 110.69-10 110.69-12.95ZM116.99-15.65L128.24-15.65Q128.24-16.9 127.89-18.03 127.54-19.15 126.87-19.98 126.19-20.8 125.22-21.28 124.24-21.75 122.89-21.75L122.89-21.75Q121.49-21.75 120.44-21.23 119.39-20.7 118.67-19.85 117.94-19 117.54-17.9 117.14-16.8 116.99-15.65L116.99-15.65ZM139.24-12.95L139.24-12.95Q139.24-16.4 140.26-19 141.29-21.6 142.99-23.33 144.69-25.05 146.89-25.93 149.09-26.8 151.39-26.8L151.39-26.8Q156.79-26.8 159.81-23.45 162.84-20.1 162.84-13.45L162.84-13.45Q162.84-12.95 162.81-12.33 162.79-11.7 162.74-11.2L162.74-11.2 145.49-11.2Q145.74-8.05 147.71-6.33 149.69-4.6 153.44-4.6L153.44-4.6Q155.64-4.6 157.46-5 159.29-5.4 160.34-5.85L160.34-5.85 161.14-0.9Q160.64-0.65 159.76-0.38 158.89-0.1 157.76 0.13 156.64 0.35 155.34 0.5 154.04 0.65 152.69 0.65L152.69 0.65Q149.24 0.65 146.69-0.38 144.14-1.4 142.49-3.23 140.84-5.05 140.04-7.53 139.24-10 139.24-12.95ZM145.54-15.65L156.79-15.65Q156.79-16.9 156.44-18.03 156.09-19.15 155.41-19.98 154.74-20.8 153.76-21.28 152.79-21.75 151.44-21.75L151.44-21.75Q150.04-21.75 148.99-21.23 147.94-20.7 147.21-19.85 146.49-19 146.09-17.9 145.69-16.8 145.54-15.65L145.54-15.65ZM169.24 0L169.24-25.3Q170.99-25.8 173.79-26.25 176.59-26.7 179.99-26.7L179.99-26.7Q183.19-26.7 185.34-25.83 187.49-24.95 188.76-23.38 190.04-21.8 190.56-19.58 191.09-17.35 191.09-14.7L191.09-14.7 191.09 0 185.04 0 185.04-13.75Q185.04-15.85 184.76-17.32 184.49-18.8 183.86-19.73 183.24-20.65 182.16-21.08 181.09-21.5 179.54-21.5L179.54-21.5Q178.39-21.5 177.14-21.35 175.89-21.2 175.29-21.1L175.29-21.1 175.29 0 169.24 0Z" opacity="1" transform="matrix(1,0,0,1,0,0)" fill="#f7fff7" class="wordmark-text-0" data-fill-palette-color="primary" id="text-0"/></svg></g></svg></g><g transform="matrix(1,0,0,1,309.09888,94.0128479076972)"><svg viewBox="0 0 86.42112 14.737684419995215" height="14.737684419995215" width="86.42112"><g transform="matrix(1,0,0,1,0,0)"><svg width="86.42112" viewBox="4.65 -35.1 209.03 35.65" height="14.737684419995215" data-palette-color="#f7fff7"><path d="M16.25-32.25Q23.1-32.25 26.75-28.35 30.4-24.45 30.4-17.15L30.4-17.15Q30.4-8.7 26.45-4.2 22.5 0.3 15.1 0.3L15.1 0.3Q13.05 0.3 10.13 0.23 7.2 0.15 4.7 0L4.7 0 4.65 0 4.9-9.65 4.65-32.05 4.7-32.05 16.25-32.25ZM15.75-3.05Q20.85-3.05 23.58-6.38 26.3-9.7 26.3-16.3L26.3-16.3Q26.3-28.9 15.95-28.9L15.95-28.9Q12.8-28.9 8.7-28.7L8.7-28.7 8.5-10 8.65-3.35Q10.2-3.2 12.38-3.13 14.55-3.05 15.75-3.05L15.75-3.05ZM43.85-23.3Q47.1-23.3 48.97-21.7 50.85-20.1 50.85-17.3L50.85-17.3Q50.85-16.45 50.55-11.15L50.55-11.15Q50.25-5.85 50.25-4.95L50.25-4.95Q50.25-3.85 50.6-3.43 50.95-3 51.8-3L51.8-3Q52.55-3 53.5-3.3L53.5-3.3 53.9-2.95 53.5-0.7Q52.05 0.15 50.65 0.3L50.65 0.3Q49.1 0.15 48.17-0.8 47.25-1.75 47.2-3.4L47.2-3.4 46.85-3.4Q44.15-0.65 41.5 0.35L41.5 0.35Q38.15 0.35 36.27-1.33 34.4-3 34.4-5.9L34.4-5.9Q34.4-8.1 35.57-9.4 36.75-10.7 39.05-11.25L39.05-11.25 47.15-13.15 47.2-16.4Q47.2-18.35 46.17-19.4 45.15-20.45 43.25-20.45L43.25-20.45Q41.55-20.45 39.85-19.65 38.15-18.85 36.2-17.15L36.2-17.15 35.8-17.35 35.3-20.2Q39.45-23.3 43.85-23.3L43.85-23.3ZM47.1-10.6L39.85-8.85Q38.85-8.55 38.4-8.03 37.95-7.5 37.95-6.45L37.95-6.45Q37.95-4.8 38.87-3.88 39.8-2.95 41.35-2.95L41.35-2.95Q44.1-2.95 46.95-6.5L46.95-6.5 47.1-10.6ZM65.65-23.25Q68.5-23.25 71.15-22.15L71.15-22.15 70.6-18.9 70-18.75Q67.5-20.4 65.2-20.4L65.2-20.4Q63.5-20.4 62.45-19.45 61.4-18.5 61.4-17.15L61.4-17.15Q61.4-15.8 62.47-14.98 63.55-14.15 65.8-13.1L65.8-13.1Q67.75-12.2 68.92-11.48 70.1-10.75 70.95-9.55 71.8-8.35 71.8-6.6L71.8-6.6Q71.8-4.75 70.85-3.15 69.9-1.55 68.05-0.58 66.2 0.4 63.65 0.4L63.65 0.4Q60.15 0.4 57-1.25L57-1.25 57.5-4.65 57.95-4.95Q59.35-3.75 60.97-3.1 62.6-2.45 64.05-2.45L64.05-2.45Q65.9-2.45 67.05-3.48 68.2-4.5 68.2-5.9L68.2-5.9Q68.2-7.25 67.12-8.08 66.05-8.9 63.8-9.95L63.8-9.95Q61.85-10.85 60.65-11.58 59.45-12.3 58.6-13.55 57.75-14.8 57.75-16.65L57.75-16.65Q57.75-19.55 59.87-21.4 62-23.25 65.65-23.25L65.65-23.25ZM92.29 0L92.54-15.55Q92.59-17.6 91.59-18.75 90.59-19.9 88.64-19.9L88.64-19.9Q85.34-19.9 81.89-16.35L81.89-16.35 81.79-10.05 82.04 0 78.09 0 78.39-9.75 78.14-34.75 82.09-35.1 81.89-19.65 82.19-19.65Q85.29-22.4 88.54-23.2L88.54-23.2Q92.34-23.2 94.29-21.45 96.24-19.7 96.19-16.45L96.19-16.45 96.09-9.95 96.29 0 92.29 0ZM114.54-23.15Q118.89-23.15 121.17-20.28 123.44-17.4 123.44-12.15L123.44-12.15Q123.44-6.15 120.54-2.88 117.64 0.4 112.44 0.4L112.44 0.4Q110.04 0.4 107.54-0.7L107.54-0.7 104.79 0.55 104.09 0.15 104.39-9.6 104.14-34.75 108.09-35.1 107.94-19.75 108.24-19.75Q109.94-21.15 111.34-21.9 112.74-22.65 114.54-23.15L114.54-23.15ZM112.79-2.5Q115.99-2.5 117.84-4.75 119.69-7 119.69-11.4L119.69-11.4Q119.69-15.45 118.27-17.68 116.84-19.9 114.19-19.9L114.19-19.9Q112.64-19.9 111.12-19.05 109.59-18.2 107.89-16.4L107.89-16.4 107.84-10.05 107.99-4.1Q110.39-2.5 112.79-2.5L112.79-2.5ZM138.14-23.3Q142.79-23.3 145.36-20.28 147.94-17.25 147.94-11.75L147.94-11.75Q147.94-5.95 145.24-2.78 142.54 0.4 137.54 0.4L137.54 0.4Q132.84 0.4 130.26-2.63 127.69-5.65 127.69-11.15L127.69-11.15Q127.69-16.95 130.41-20.13 133.14-23.3 138.14-23.3L138.14-23.3ZM137.89-20.5Q134.74-20.5 133.09-18.35 131.44-16.2 131.44-12.05L131.44-12.05Q131.44-7.25 133.06-4.85 134.69-2.45 137.79-2.45L137.79-2.45Q140.94-2.45 142.59-4.55 144.24-6.65 144.24-10.85L144.24-10.85Q144.24-15.6 142.61-18.05 140.99-20.5 137.89-20.5L137.89-20.5ZM161.69-23.3Q164.94-23.3 166.81-21.7 168.69-20.1 168.69-17.3L168.69-17.3Q168.69-16.45 168.39-11.15L168.39-11.15Q168.09-5.85 168.09-4.95L168.09-4.95Q168.09-3.85 168.44-3.43 168.79-3 169.64-3L169.64-3Q170.39-3 171.34-3.3L171.34-3.3 171.74-2.95 171.34-0.7Q169.89 0.15 168.49 0.3L168.49 0.3Q166.94 0.15 166.01-0.8 165.09-1.75 165.04-3.4L165.04-3.4 164.69-3.4Q161.99-0.65 159.34 0.35L159.34 0.35Q155.99 0.35 154.11-1.33 152.24-3 152.24-5.9L152.24-5.9Q152.24-8.1 153.41-9.4 154.59-10.7 156.89-11.25L156.89-11.25 164.99-13.15 165.04-16.4Q165.04-18.35 164.01-19.4 162.99-20.45 161.09-20.45L161.09-20.45Q159.39-20.45 157.69-19.65 155.99-18.85 154.04-17.15L154.04-17.15 153.64-17.35 153.14-20.2Q157.29-23.3 161.69-23.3L161.69-23.3ZM164.94-10.6L157.69-8.85Q156.69-8.55 156.24-8.03 155.79-7.5 155.79-6.45L155.79-6.45Q155.79-4.8 156.71-3.88 157.64-2.95 159.19-2.95L159.19-2.95Q161.94-2.95 164.79-6.5L164.79-6.5 164.94-10.6ZM187.23-22.95Q187.83-22.95 188.53-22.85L188.53-22.85 188.53-19 188.08-18.85Q187.23-19.1 186.23-19.1L186.23-19.1Q184.58-19.1 183.21-17.78 181.83-16.45 180.48-13.55L180.48-13.55 180.43-10.05 180.68 0 176.73 0 176.98-9.7 176.78-22.65 180.53-23 180.48-18.3 180.78-18.3Q182.18-20.8 183.88-21.88 185.58-22.95 187.23-22.95L187.23-22.95ZM210.33-35.1L209.98-10.05 210.13-4.9Q210.18-3.85 210.48-3.43 210.78-3 211.58-3L211.58-3Q212.38-3 213.28-3.3L213.28-3.3 213.68-2.95 213.28-0.7Q211.93 0.15 210.48 0.3L210.48 0.3Q208.93 0.15 208.06-0.75 207.18-1.65 206.98-3.2L206.98-3.2 206.63-3.2Q205.13-1.9 203.93-1.13 202.73-0.35 201.18 0.25L201.18 0.25Q196.23 0.25 193.58-2.78 190.93-5.8 190.93-11.4L190.93-11.4Q190.93-17.05 193.88-20.18 196.83-23.3 202.03-23.3L202.03-23.3Q204.38-23.3 206.43-22.8L206.43-22.8 206.38-34.75 210.33-35.1ZM201.58-20.5Q198.38-20.5 196.53-18.32 194.68-16.15 194.68-12.05L194.68-12.05Q194.68-7.8 196.36-5.45 198.03-3.1 200.98-3.1L200.98-3.1Q202.38-3.1 203.71-3.8 205.03-4.5 206.48-6.15L206.48-6.15 206.58-9.75 206.43-19.25Q203.78-20.5 201.58-20.5L201.58-20.5Z" opacity="1" transform="matrix(1,0,0,1,0,0)" fill="#f7fff7" class="slogan-text-1" data-fill-palette-color="secondary" id="text-1"/></svg></g></svg></g></svg></g></svg></g><g transform="matrix(1,0,0,1,413.47534989972905,0)"><svg viewBox="0 0 150.29323567687092 150.29323567687092" height="150.29323567687092" width="150.29323567687092"><g data-palette-color="#b79cff"><rect width="41.08015108501139" height="150.29323567687092" fill="#b79cff" stroke="transparent" data-fill-palette-color="accent" x="0" fill-opacity="1"/><rect width="41.08015108501139" height="150.29323567687092" fill="#b79cff" stroke="transparent" data-fill-palette-color="accent" x="50.09774522562364" fill-opacity="0.75"/><rect width="41.08015108501139" height="150.29323567687092" fill="#b79cff" stroke="transparent" data-fill-palette-color="accent" x="100.19549045124728" fill-opacity="0.5"/></g></svg></g></svg></g><defs/></svg><rect width="395.52" height="105.44039184822448" fill="none" stroke="none" visibility="hidden"/></g></svg></g></svg>