<?xml version="1.0" encoding="utf-8"?>
<!-- Generator: Adobe Illustrator 27.5.0, SVG Export Plug-In . SVG Version: 6.00 Build 0)  -->
<svg version="1.1" xmlns="http://www.w3.org/2000/svg" xmlns:xlink="http://www.w3.org/1999/xlink" x="0px" y="0px"
	 viewBox="0 0 3710 3710" style="enable-background:new 0 0 3710 3710;" xml:space="preserve">
<g id="Background">
	<g>
		<g>
			<rect style="fill:#FFFFFF;" width="3710" height="3710"/>
		</g>
	</g>
</g>
<g id="Illustration">
	<g>
		<path style="fill:#F4F7FA;" d="M2990.789,963.359C2395.062,253.664,984.698,213.997,569.997,776.893
			c-228.498,310.153-133.014,773.778-85.902,1002.531c86.698,420.967,300.486,691.976,347.169,749.461
			c113.273,139.488,388.413,478.306,802.383,555.755c707.333,132.335,1589.924-541.443,1638.822-1301.614
			C3300.658,1344.769,3042.293,1024.715,2990.789,963.359z"/>
		<g>
			<linearGradient id="SVGID_1_" gradientUnits="userSpaceOnUse" x1="1775.2548" y1="1224.0939" x2="1107.4824" y2="1438.4021">
				<stop  offset="0" style="stop-color:#FCB148"/>
				<stop  offset="0.0521" style="stop-color:#FDBA46"/>
				<stop  offset="0.1424" style="stop-color:#FFC244"/>
				<stop  offset="0.3183" style="stop-color:#FFC444"/>
				<stop  offset="0.4849" style="stop-color:#FDB946"/>
				<stop  offset="0.7754" style="stop-color:#F99C4D"/>
				<stop  offset="0.8658" style="stop-color:#F8924F"/>
				<stop  offset="1" style="stop-color:#F8924F"/>
			</linearGradient>
			<path style="fill:url(#SVGID_1_);" d="M2544.003,1199.864c0,309.788-242.235,553.482-551.839,543.974
				c-322.206-9.893-593.192-288.166-593.192-621.169c0-333.002,270.986-574.736,593.192-541.186
				C2301.767,613.72,2544.003,890.076,2544.003,1199.864z"/>
			
				<linearGradient id="SVGID_00000144313424931403353710000000916021867463687331_" gradientUnits="userSpaceOnUse" x1="2315.4438" y1="559.3937" x2="1719.2979" y2="1874.603">
				<stop  offset="0" style="stop-color:#FFDB44"/>
				<stop  offset="1" style="stop-color:#FEEF06"/>
			</linearGradient>
			<path style="fill:url(#SVGID_00000144313424931403353710000000916021867463687331_);" d="M2627.664,1173.152
				c0,309.788-242.235,553.482-551.839,543.975c-322.206-9.895-593.192-288.167-593.192-621.169
				c0-333.002,270.986-574.737,593.192-541.187C2385.429,587.009,2627.664,863.365,2627.664,1173.152z"/>
			
				<linearGradient id="SVGID_00000013194823656639008310000002928146580717337517_" gradientUnits="userSpaceOnUse" x1="2205.7825" y1="1948.1099" x2="2090.7549" y2="1319.7184">
				<stop  offset="0" style="stop-color:#FCB148"/>
				<stop  offset="0.0521" style="stop-color:#FDBA46"/>
				<stop  offset="0.1424" style="stop-color:#FFC244"/>
				<stop  offset="0.3183" style="stop-color:#FFC444"/>
				<stop  offset="0.4849" style="stop-color:#FDB946"/>
				<stop  offset="0.7754" style="stop-color:#F99C4D"/>
				<stop  offset="0.8658" style="stop-color:#F8924F"/>
				<stop  offset="1" style="stop-color:#F8924F"/>
			</linearGradient>
			<path style="fill:url(#SVGID_00000013194823656639008310000002928146580717337517_);" d="M2603.363,1171.514
				c0,296.146-231.775,528.715-527.539,519.137c-307.244-9.948-565.205-275.517-565.205-592.807
				c0-317.291,257.962-548.077,565.205-516.599C2371.588,611.548,2603.363,875.368,2603.363,1171.514z"/>
			
				<linearGradient id="SVGID_00000157289819233810723480000015142762979768639668_" gradientUnits="userSpaceOnUse" x1="1961.9017" y1="930.989" x2="2435.9456" y2="1937.2938">
				<stop  offset="0" style="stop-color:#FCB148"/>
				<stop  offset="0.0521" style="stop-color:#FDBA46"/>
				<stop  offset="0.1424" style="stop-color:#FFC244"/>
				<stop  offset="0.3183" style="stop-color:#FFC444"/>
				<stop  offset="0.4849" style="stop-color:#FDB946"/>
				<stop  offset="0.7754" style="stop-color:#F99C4D"/>
				<stop  offset="0.8658" style="stop-color:#F8924F"/>
				<stop  offset="1" style="stop-color:#F8924F"/>
			</linearGradient>
			<path style="fill:url(#SVGID_00000157289819233810723480000015142762979768639668_);" d="M2585.958,1170.341
				c0,286.375-224.271,510.999-510.134,501.4c-296.573-9.957-545.274-266.451-545.274-572.553s248.701-529.063,545.274-499.032
				C2361.688,629.102,2585.958,883.965,2585.958,1170.341z"/>
			<g>
				
					<linearGradient id="SVGID_00000090274180917654326570000013005156913720229049_" gradientUnits="userSpaceOnUse" x1="1943.0156" y1="714.4451" x2="2181.3813" y2="1607.7979">
					<stop  offset="0" style="stop-color:#FFDB44"/>
					<stop  offset="1" style="stop-color:#FEEF06"/>
				</linearGradient>
				<path style="fill:url(#SVGID_00000090274180917654326570000013005156913720229049_);" d="M2072.897,697.581L2072.897,697.581
					c15.213,1.447,27.524,15.142,27.524,30.59v52.727c30.417,3.396,60.878,8.684,91.382,15.852
					c22.491,5.285,44.832,11.578,67.021,18.874c13.296,4.371,22.356,17.796,21,31.641l-6.475,66.118
					c-1.719,17.542-19.058,27.843-35.383,20.563c-14.616-6.517-29.602-12.101-44.961-16.748
					c-26.801-8.11-55.065-13.397-84.806-15.848l-7.777-0.641v151.001c79.355,22.201,137.634,52.07,175.296,89.638
					c37.481,37.387,56.155,83.982,56.155,139.921c0,60.492-20.646,108.931-62.102,145.462
					c-41.677,36.727-100.11,57.383-175.673,61.855v58.196c0,15.456-12.321,27.494-27.546,26.889l-0.489-0.019
					c-15.256-0.607-27.644-13.672-27.644-29.181v-57.407l-12.263-0.553c-35.423-1.599-69.354-5.212-101.772-10.851
					c-24.009-4.176-47.454-9.566-70.33-16.174c-13.835-3.997-23.331-17.176-22.063-31.335l7.619-84.992
					c1.647-18.373,20.103-29.065,37.574-22.173c20.365,8.034,40.984,14.8,61.854,20.304c32.524,8.577,65.49,14.078,98.891,16.522
					l0.49-167.97c-76.172-18.848-133.201-46.765-170.669-83.743c-37.643-37.152-56.531-84.698-56.531-142.507
					c0-59.825,20.481-106.005,61.287-138.414c40.6-32.245,98.313-48.286,172.771-48.247v-53.903
					C2045.276,707.522,2057.655,696.132,2072.897,697.581z M2045.276,899.145c-23.541,1.713-41.899,8.178-55.038,19.405
					c-13.161,11.246-19.75,26.358-19.75,45.326c0,17.97,6.094,32.99,18.27,45.047c12.157,12.038,31.012,21.651,56.518,28.833
					V899.145z M2094.097,1203.302v154.033c25.592,0.05,45.215-6.06,58.914-18.313c13.675-12.233,20.504-29.511,20.504-51.851
					c0-20.369-6.346-37.262-19.054-50.695C2141.731,1223.02,2121.629,1211.964,2094.097,1203.302z"/>
			</g>
			
				<linearGradient id="SVGID_00000088091377669118872660000012377052034705665164_" gradientUnits="userSpaceOnUse" x1="1822.4396" y1="996.1122" x2="2295.5273" y2="2000.3875">
				<stop  offset="0" style="stop-color:#FCB148"/>
				<stop  offset="0.0521" style="stop-color:#FDBA46"/>
				<stop  offset="0.1424" style="stop-color:#FFC244"/>
				<stop  offset="0.3183" style="stop-color:#FFC444"/>
				<stop  offset="0.4849" style="stop-color:#FDB946"/>
				<stop  offset="0.7754" style="stop-color:#F99C4D"/>
				<stop  offset="0.8658" style="stop-color:#F8924F"/>
				<stop  offset="1" style="stop-color:#F8924F"/>
			</linearGradient>
			<path style="opacity:0.3;fill:url(#SVGID_00000088091377669118872660000012377052034705665164_);" d="M1983.509,1240.469
				c17.236-170.23,173.684-242.294,153.268-398.879c-12.583-96.51-85.733-177.843-167.333-241.348
				c-247.505,25.956-438.894,230.898-438.894,498.947c0,306.102,248.701,562.596,545.273,572.554
				c28.796,0.966,56.919-0.531,84.264-4.115C2042.307,1550.426,1968.702,1386.718,1983.509,1240.469z"/>
		</g>
		<g>
			
				<linearGradient id="SVGID_00000129184324376068323480000007195665388250410115_" gradientUnits="userSpaceOnUse" x1="3235.2949" y1="3115.6494" x2="2793.4878" y2="1620.8096">
				<stop  offset="0" style="stop-color:#311944"/>
				<stop  offset="1" style="stop-color:#893976"/>
			</linearGradient>
			<path style="fill:url(#SVGID_00000129184324376068323480000007195665388250410115_);" d="M3151.147,1610.799l-73.834-498.457
				l-165.049,16.602c-13.925-2.587-40.402,11.898-46.661,26.511l-216.737,505.037c-6.711,15.666,3.588,33.643,19.184,33.54
				l61.887-2.6V2868.64c0,20.974,15.235,36.031,33.967,33.639l148.36,32.977c17.746-2.293,183.882-91.796,183.882-112.024V1643.172
				l37.515-0.197C3147.885,1642.901,3157.234,1625.676,3151.147,1610.799z"/>
			
				<linearGradient id="SVGID_00000087406692086164132570000011721270251840862090_" gradientUnits="userSpaceOnUse" x1="2867.2874" y1="2720.2988" x2="2809.2744" y2="2258.7139">
				<stop  offset="0" style="stop-color:#311944"/>
				<stop  offset="1" style="stop-color:#893976"/>
			</linearGradient>
			<path style="opacity:0.3;fill:url(#SVGID_00000087406692086164132570000011721270251840862090_);" d="M2893.638,1686.131
				l-163.702,5.301V2868.64c0,20.974,15.235,36.031,33.968,33.639l148.36,32.977c7.303-0.944,39.849-16.717,75.559-36.332
				L2893.638,1686.131z"/>
			
				<linearGradient id="SVGID_00000106862454851640261980000005264692029613148332_" gradientUnits="userSpaceOnUse" x1="3064.2878" y1="1880.3906" x2="2900.113" y2="4903.9761">
				<stop  offset="0.0036" style="stop-color:#E38DDD"/>
				<stop  offset="1" style="stop-color:#9571F6"/>
			</linearGradient>
			<path style="fill:url(#SVGID_00000106862454851640261980000005264692029613148332_);" d="M3292.798,1683.567l-37.887,0.223
				v1174.508c0,20.114-13.358,38.266-30.751,40.496l-297.218,38.489c-18.554,2.408-33.281-12.577-33.281-33.449V1686.109
				l-40.252,0.268c-15.431,0.134-25.655-17.75-19.009-33.36l225.754-529.744c7.269-17.037,28.987-15.966,36.212,1.784
				l214.149,526.443C3316.536,1666.307,3306.89,1683.478,3292.798,1683.567z"/>
			
				<linearGradient id="SVGID_00000088090875135678629710000000768889839607760800_" gradientUnits="userSpaceOnUse" x1="2771.5571" y1="3295.4548" x2="2329.9534" y2="1801.3022">
				<stop  offset="0" style="stop-color:#311944"/>
				<stop  offset="1" style="stop-color:#893976"/>
			</linearGradient>
			<path style="fill:url(#SVGID_00000088090875135678629710000000768889839607760800_);" d="M2436.58,2999.873l-155-36.011
				c-19.507,2.49-35.372-12.395-35.372-33.257v-961.605c0-20.861,15.865-38.239,35.372-38.813l332.358-9.776
				c18.254-0.537,172.833,8.215,172.833,8.215l-139.828,952.217C2646.942,2900.93,2436.58,2999.873,2436.58,2999.873z"/>
			
				<linearGradient id="SVGID_00000061465912515335663310000002828553721495993753_" gradientUnits="userSpaceOnUse" x1="2646.9033" y1="1856.7937" x2="2482.8894" y2="4877.4165">
				<stop  offset="0.0036" style="stop-color:#E38DDD"/>
				<stop  offset="1" style="stop-color:#9571F6"/>
			</linearGradient>
			<path style="fill:url(#SVGID_00000061465912515335663310000002828553721495993753_);" d="M2813.383,1962.978v953.12
				c0,5.575-2.142,11.016-4.193,16.011c-5.218,12.844-16.902,22.745-29.97,24.396l-328.424,42.547
				c-19.357,2.497-34.342-12.265-34.342-33.048v-989.824c0-20.739,14.74-38.043,34.097-38.623l71.501-2.141l257.898-7.626
				C2798.058,1927.21,2813.383,1942.998,2813.383,1962.978z"/>
			
				<linearGradient id="SVGID_00000131339612459751087550000011192275436130842274_" gradientUnits="userSpaceOnUse" x1="2264.4036" y1="3491.1653" x2="1819.4496" y2="1985.6781">
				<stop  offset="0" style="stop-color:#311944"/>
				<stop  offset="1" style="stop-color:#893976"/>
			</linearGradient>
			<path style="fill:url(#SVGID_00000131339612459751087550000011192275436130842274_);" d="M1917.213,3067.306l-163.459-36.052
				c-21.471,2.741-38.937-12.773-38.937-34.662l4.94-673.805c0-21.886,17.461-40.669,38.926-41.95l365.137-21.781
				c20.022-1.194,187.999,21.941,187.999,21.941l-156.616,660.909C2155.202,2962.944,1937.472,3064.687,1917.213,3067.306z"/>
			
				<linearGradient id="SVGID_00000102504166601882118560000003360905675334285208_" gradientUnits="userSpaceOnUse" x1="2151.4749" y1="1828.713" x2="1987.5688" y2="4847.3467">
				<stop  offset="0.0036" style="stop-color:#E38DDD"/>
				<stop  offset="1" style="stop-color:#9571F6"/>
			</linearGradient>
			<path style="fill:url(#SVGID_00000102504166601882118560000003360905675334285208_);" d="M2322.797,2309.064v668.267
				c0,20.962-15.208,40.005-35.055,42.547l-360.359,46.784c-21.228,2.765-37.194-12.666-37.194-34.43v-695.294
				c0-21.809,16.367-40.495,37.595-41.789l111.61-6.779l248.582-15.03C2307.823,2272.136,2322.797,2288.147,2322.797,2309.064z"/>
			
				<linearGradient id="SVGID_00000112623865007510014660000014899359375014217860_" gradientUnits="userSpaceOnUse" x1="1685.8652" y1="3699.6375" x2="1244.2452" y2="2205.4307">
				<stop  offset="0" style="stop-color:#311944"/>
				<stop  offset="1" style="stop-color:#893976"/>
			</linearGradient>
			<path style="fill:url(#SVGID_00000112623865007510014660000014899359375014217860_);" d="M1324.413,3136.05l-152.988-30.445
				c-23.747,3.032-43.069-13.165-43.069-36.188v-350.124c0-23.023,19.322-43.426,43.069-45.564l403.252-36.304
				c22.074-1.987,174.866,15.9,174.866,15.9l-134.961,355.714C1614.582,3031.122,1346.798,3133.161,1324.413,3136.05z"/>
			
				<linearGradient id="SVGID_00000133509430320441032480000016862959038062721409_" gradientUnits="userSpaceOnUse" x1="1606.0365" y1="1798.8599" x2="1442.3571" y2="4813.3203">
				<stop  offset="0.0036" style="stop-color:#E38DDD"/>
				<stop  offset="1" style="stop-color:#9571F6"/>
			</linearGradient>
			<path style="fill:url(#SVGID_00000133509430320441032480000016862959038062721409_);" d="M1787.612,2689.536v355.184
				c0,6.868-1.026,13.558-4.059,19.579c-6.69,13.246-19.355,23.369-34.385,25.287l-15.342,1.962l-384.575,49.683
				c-23.504,3.033-43.305-13.067-43.305-35.991v-370.259c0-22.924,19.98-43.216,43.484-45.357l51.11-4.638l74.167-6.735
				l273.881-24.931C1770.441,2651.359,1787.612,2667.549,1787.612,2689.536z"/>
			
				<linearGradient id="SVGID_00000123424522837018113850000013503487521817667201_" gradientUnits="userSpaceOnUse" x1="1168.7466" y1="4176.0659" x2="621.6033" y2="2324.8245">
				<stop  offset="0" style="stop-color:#311944"/>
				<stop  offset="1" style="stop-color:#893976"/>
			</linearGradient>
			<path style="fill:url(#SVGID_00000123424522837018113850000013503487521817667201_);" d="M973.218,2846.681l-447.525,46.204
				c-19.105,1.972-35.588,14.003-43.27,29.695c-2.935,5.994-4.625,12.504-4.625,19.215v192.396
				c0,24.281,20.551,44.172,47.895,53.861l158.138,31.429c24.843-3.207,333.584-113.049,333.584-136.287l74.165-89.214
				l75.068-127.113C1166.649,2866.866,997.667,2844.157,973.218,2846.681z"/>
			
				<linearGradient id="SVGID_00000106143992746299327280000000062070137729417124_" gradientUnits="userSpaceOnUse" x1="1000.5465" y1="1766.0735" x2="837.1391" y2="4775.5234">
				<stop  offset="0.0036" style="stop-color:#E38DDD"/>
				<stop  offset="1" style="stop-color:#9571F6"/>
			</linearGradient>
			<path style="fill:url(#SVGID_00000106143992746299327280000000062070137729417124_);" d="M1198.909,2905.483v213.583
				c0,23.146-20.091,44.42-44.309,47.542l-96.656,12.443l-346.738,44.822c-26.134,3.389-47.482-13.424-47.482-37.597v-223.172
				c0-24.128,21.208-45.937,47.343-48.702l68.023-7.091l375.527-39.113C1178.835,2865.656,1198.909,2882.381,1198.909,2905.483z"/>
			
				<linearGradient id="SVGID_00000057860525277353764950000010602375457975937213_" gradientUnits="userSpaceOnUse" x1="3348.0688" y1="1014.6157" x2="2627.4873" y2="4333.6646">
				<stop  offset="0.0036" style="stop-color:#E38DDD"/>
				<stop  offset="1" style="stop-color:#9571F6"/>
			</linearGradient>
			<path style="opacity:0.3;fill:url(#SVGID_00000057860525277353764950000010602375457975937213_);" d="M3254.911,2657.514v200.784
				c0,20.114-13.358,38.266-30.751,40.496l-297.218,38.489c-18.554,2.408-33.281-12.577-33.281-33.449V1688.161
				c49.059,2.631,150.402,84.411,117.443,345.001c-45.089,356.79-43.823,374.644,12.64,434.094
				C3059.066,2504.451,3196.932,2546.285,3254.911,2657.514z"/>
			
				<linearGradient id="SVGID_00000068678580989691589700000013525485678158538924_" gradientUnits="userSpaceOnUse" x1="2854.3076" y1="1337.2712" x2="2228.2781" y2="4220.8066">
				<stop  offset="0.0036" style="stop-color:#E38DDD"/>
				<stop  offset="1" style="stop-color:#9571F6"/>
			</linearGradient>
			<path style="opacity:0.3;fill:url(#SVGID_00000068678580989691589700000013525485678158538924_);" d="M2808.209,2932.108
				c-5.218,12.844-16.411,22.745-29.479,24.396l-328.178,42.547c-19.357,2.497-34.097-12.265-34.097-33.048v-989.824
				c0-20.739,14.74-38.043,34.097-38.623l71.501-2.141c54.958,41.254,71.522,100.558,47.153,176.165
				c-86.968,269.822-73.825,421.101-17.362,480.551C2599.875,2642.663,2836.841,2701.801,2808.209,2932.108z"/>
			
				<linearGradient id="SVGID_00000153669813693179105020000015306405005835379351_" gradientUnits="userSpaceOnUse" x1="2283.3894" y1="1842.3575" x2="1817.3453" y2="3988.989">
				<stop  offset="0.0036" style="stop-color:#E38DDD"/>
				<stop  offset="1" style="stop-color:#9571F6"/>
			</linearGradient>
			<path style="opacity:0.3;fill:url(#SVGID_00000153669813693179105020000015306405005835379351_);" d="M2322.797,2920.245v57.086
				c0,20.962-15.208,40.005-35.055,42.547l-360.359,46.784c-21.228,2.765-37.194-12.666-37.194-34.43v-695.294
				c0-21.809,16.367-40.495,37.595-41.789l111.61-6.779c121.36,89.688-107.58,312.681,38.109,499.996
				C2177.906,2917.455,2278.198,2785.557,2322.797,2920.245z"/>
			
				<linearGradient id="SVGID_00000141445108992927264860000000147862202853406880_" gradientUnits="userSpaceOnUse" x1="1621.8121" y1="2441.6482" x2="1349.6698" y2="3695.1545">
				<stop  offset="0.0036" style="stop-color:#E38DDD"/>
				<stop  offset="1" style="stop-color:#9571F6"/>
			</linearGradient>
			<path style="opacity:0.3;fill:url(#SVGID_00000141445108992927264860000000147862202853406880_);" d="M1733.826,3091.549
				l-384.575,49.683c-23.504,3.033-43.305-13.067-43.305-35.991v-370.259c0-22.924,19.98-43.216,43.484-45.357l51.11-4.638
				c9.813,49.46,28.721,76.174,53.965,102.755C1501.691,2837.381,1717.905,2894.69,1733.826,3091.549z"/>
			
				<linearGradient id="SVGID_00000126302712658893351630000001086883585881269160_" gradientUnits="userSpaceOnUse" x1="933.4889" y1="2733.5459" x2="739.8867" y2="3625.2913">
				<stop  offset="0.0036" style="stop-color:#E38DDD"/>
				<stop  offset="1" style="stop-color:#9571F6"/>
			</linearGradient>
			<path style="opacity:0.3;fill:url(#SVGID_00000126302712658893351630000001086883585881269160_);" d="M1057.665,3179.052
				l-346.598,44.822c-26.134,3.389-47.343-13.424-47.343-37.597v-223.172c0-24.128,21.208-45.937,47.343-48.702l68.023-7.091
				c8.118,13.87,17.779,25.511,28.839,37.151C847.622,2986.207,1016.366,3033.883,1057.665,3179.052z"/>
		</g>
		<g>
			
				<linearGradient id="SVGID_00000053532262338851498900000007711380319897130380_" gradientUnits="userSpaceOnUse" x1="1572.1472" y1="1370.0624" x2="910.1124" y2="1182.7203">
				<stop  offset="0" style="stop-color:#311944"/>
				<stop  offset="1" style="stop-color:#A03976"/>
			</linearGradient>
			<path style="fill:url(#SVGID_00000053532262338851498900000007711380319897130380_);" d="M1060.427,1322.358
				c21.202,10.765,47.839,0.881,59.495-22.076c11.656-22.957,3.917-50.295-17.285-61.059c-1.098-0.558-2.219-1.026-3.344-1.475
				c3.939-12.703,6.909-25.505,8.901-38.313c1.215-0.003,2.435-0.024,3.674-0.134c24.189-2.157,43.387-24.384,42.881-49.648
				c-0.506-25.264-20.527-43.998-44.716-41.841c-1.265,0.114-2.506,0.313-3.741,0.532c-2.527-12.52-5.989-24.75-10.356-36.587
				c1.113-0.651,2.22-1.324,3.301-2.082c20.695-14.498,27.312-43.115,14.778-63.916c-12.533-20.802-39.471-25.91-60.166-11.411
				c-1.061,0.743-2.058,1.545-3.044,2.36c-8.174-9.036-17.139-17.41-26.839-25.053c0.682-1.118,1.349-2.251,1.953-3.44
				c11.656-22.957,26.887-48.035,5.519-58.466c-49.43-24.131-70.642-3.474-82.298,19.483c-0.603,1.189-1.124,2.397-1.624,3.607
				c-11.894-3.321-23.945-5.617-36.063-6.884c0.076-1.276,0.135-2.555,0.109-3.85c-0.507-25.263,6.989-38.935-17.292-39.407
				c-52.948-1.03-70.813,21.953-70.306,47.215c0.026,1.32,0.137,2.612,0.267,3.894c-12.134,3.458-24.05,7.881-35.649,13.229
				c-0.551-1.127-1.123-2.247-1.778-3.335c-12.533-20.801-39.471-25.909-60.166-11.409c-20.696,14.5-27.312,43.115-14.778,63.916
				c0.642,1.066,1.345,2.062,2.06,3.046c-9.165,9.166-17.747,19.118-25.678,29.795c-1.026-0.644-2.066-1.272-3.164-1.83
				c-21.202-10.765-47.838-0.881-59.494,22.077c-11.656,22.957-3.917,50.294,17.284,61.059c1.099,0.558,2.22,1.026,3.344,1.475
				c-3.939,12.703-6.909,25.506-8.901,38.313c-1.215,0.004-2.435,0.024-3.673,0.133c-24.19,2.158-43.388,24.385-42.882,49.65
				c0.507,25.264,20.527,43.996,44.716,41.84c1.264-0.112,2.506-0.311,3.74-0.531c2.526,12.52,5.988,24.75,10.356,36.588
				c-1.113,0.651-2.22,1.324-3.301,2.081c-20.695,14.499-27.312,43.116-14.778,63.917c12.533,20.801,54.027,30.465,74.722,15.966
				c1.061-0.743-12.498-6.101-11.513-6.915c8.174,9.036,17.139,17.41,26.839,25.053c-0.681,1.118-1.349,2.251-1.953,3.44
				c-11.656,22.957-3.917,50.294,17.285,61.059c21.202,10.764,47.839,0.88,59.494-22.077c0.604-1.189,1.124-2.397,1.625-3.607
				c11.894,3.321,23.945,5.617,36.063,6.884c-0.076,1.276-0.134,2.555-0.109,3.85c0.507,25.263,20.527,43.996,44.716,41.84
				c24.189-2.156,43.388-24.385,42.881-49.648c-0.026-1.32-0.137-2.611-0.268-3.894c12.134-3.458,24.051-7.88,35.649-13.229
				c0.551,1.127,1.124,2.247,1.778,3.333c12.533,20.801,39.47,25.91,60.166,11.411c20.696-14.5,27.312-43.115,14.779-63.918
				c-0.642-1.065-1.345-2.061-2.06-3.044c9.164-9.166,17.748-19.119,25.678-29.794
				C1058.289,1321.172,1059.329,1321.801,1060.427,1322.358z M796.125,1325.712c-76.979-39.084-105.076-138.339-62.756-221.691
				c42.32-83.354,139.031-119.24,216.01-80.156c76.979,39.084,105.076,138.339,62.756,221.691
				C969.816,1328.91,873.105,1364.796,796.125,1325.712z"/>
			
				<linearGradient id="SVGID_00000132767950274128347400000017170604977237208449_" gradientUnits="userSpaceOnUse" x1="1570.4114" y1="1376.1936" x2="908.3752" y2="1188.8512">
				<stop  offset="0" style="stop-color:#311944"/>
				<stop  offset="1" style="stop-color:#A03976"/>
			</linearGradient>
			<path style="fill:url(#SVGID_00000132767950274128347400000017170604977237208449_);" d="M1111.868,1199.301
				c24.189-2.157,43.387-24.385,42.881-49.649c-0.506-25.264-20.527-43.997-44.716-41.84c-1.265,0.112-2.506,0.313-3.741,0.532
				c-2.526-12.521-5.989-24.75-10.356-36.587c1.113-0.65,2.22-1.324,3.301-2.082c20.695-14.499,46.298-49.532,31.698-68.937
				c-27.712-36.83-56.39-20.888-77.085-6.39c-1.061,0.743-2.058,1.545-3.044,2.359c-8.175-9.036-17.14-17.41-26.839-25.053
				c0.682-1.118,1.349-2.25,1.953-3.439c6.344-12.495,6.904-26.27,2.714-37.981c-19.989,35.182-39.709,70.512-59.075,106.033
				c61.412,45.001,80.963,133.684,42.577,209.29c-32.529,64.069-97.19,100.044-160.327,95.536
				c-2.816,7.304-5.582,14.648-8.598,21.881c-8.184,19.63-17.482,38.856-26.792,58.057c5.855,1.104,11.735,1.973,17.632,2.59
				c-0.076,1.277-0.134,2.556-0.109,3.851c0.507,25.264,15.845,46.729,59.685,44.403c24.251-1.286,28.419-26.948,27.913-52.212
				c-0.026-1.32-0.136-2.611-0.267-3.894c12.134-3.458,24.05-7.881,35.649-13.229c0.551,1.127,1.124,2.247,1.779,3.333
				c12.533,20.802,56.013,29.64,76.708,15.14c20.695-14.5,10.769-46.844-1.764-67.646c-0.642-1.066-1.345-2.062-2.059-3.045
				c9.164-9.165,17.747-19.118,25.678-29.794c1.026,0.644,2.066,1.272,3.164,1.828c21.202,10.766,47.839,0.881,59.495-22.077
				c11.656-22.956,3.917-50.294-17.285-61.058c-1.099-0.558-2.219-1.026-3.344-1.475c3.939-12.703,6.909-25.506,8.901-38.312
				C1109.409,1199.432,1110.629,1199.411,1111.868,1199.301z"/>
			
				<linearGradient id="SVGID_00000039829653218362990770000000379646641664380032_" gradientUnits="userSpaceOnUse" x1="892.7617" y1="951.6918" x2="903.1145" y2="1787.696">
				<stop  offset="0" style="stop-color:#FF9085"/>
				<stop  offset="1" style="stop-color:#FB6FBB"/>
			</linearGradient>
			<path style="fill:url(#SVGID_00000039829653218362990770000000379646641664380032_);" d="M1083.231,1324.952
				c21.202,10.764,47.839,0.88,59.494-22.077c11.656-22.957,3.918-50.294-17.285-61.059c-1.098-0.558-2.219-1.026-3.344-1.474
				c3.939-12.703,6.909-25.506,8.9-38.313c1.216-0.003,2.435-0.024,3.674-0.134c24.19-2.156,43.388-24.384,42.881-49.648
				c-0.506-25.265-20.526-43.997-44.716-41.841c-1.265,0.114-2.506,0.313-3.741,0.532c-2.527-12.52-5.989-24.75-10.356-36.587
				c1.113-0.651,2.22-1.324,3.302-2.082c20.695-14.499,27.312-43.116,14.778-63.917c-12.533-20.801-39.471-25.909-60.166-11.411
				c-1.061,0.743-2.058,1.545-3.044,2.359c-8.174-9.036-17.139-17.409-26.839-25.052c0.682-1.118,1.349-2.251,1.953-3.44
				c11.656-22.957,3.917-50.294-17.285-61.059c-21.202-10.765-47.839-0.881-59.494,22.077c-0.604,1.189-1.124,2.397-1.625,3.607
				c-11.894-3.321-23.944-5.617-36.063-6.884c0.075-1.277,0.134-2.555,0.109-3.85c-0.507-25.263-20.527-43.996-44.716-41.84
				c-24.19,2.156-43.388,24.385-42.881,49.648c0.027,1.321,0.137,2.612,0.268,3.894c-12.134,3.459-24.05,7.881-35.649,13.23
				c-0.551-1.127-1.123-2.247-1.778-3.335c-12.533-20.801-39.471-25.91-60.166-11.41c-20.696,14.5-27.311,43.116-14.778,63.917
				c0.642,1.066,1.345,2.062,2.06,3.045c-9.164,9.166-17.748,19.118-25.679,29.795c-1.026-0.643-2.065-1.272-3.164-1.83
				c-21.202-10.765-47.838-0.881-59.494,22.077c-11.656,22.957-3.918,50.294,17.284,61.059c1.098,0.558,2.22,1.026,3.344,1.475
				c-3.939,12.703-6.91,25.505-8.901,38.313c-1.215,0.004-2.435,0.024-3.674,0.133c-24.19,2.158-43.388,24.385-42.882,49.65
				c0.506,25.264,20.527,43.995,44.716,41.84c1.264-0.112,2.506-0.311,3.74-0.531c2.527,12.52,5.989,24.75,10.357,36.587
				c-1.112,0.651-2.22,1.323-3.301,2.082c-20.695,14.498-27.312,43.115-14.779,63.916c12.533,20.801,39.471,25.909,60.165,11.411
				c1.061-0.744,2.059-1.546,3.044-2.36c8.174,9.036,17.139,17.41,26.839,25.053c-0.681,1.118-1.35,2.251-1.953,3.44
				c-11.656,22.957-3.917,50.294,17.285,61.059c21.202,10.765,47.839,0.881,59.494-22.077c0.604-1.189,1.124-2.397,1.624-3.607
				c11.894,3.321,23.945,5.616,36.063,6.884c-0.075,1.276-0.135,2.555-0.109,3.85c0.507,25.263,20.526,43.996,44.716,41.84
				c24.189-2.156,43.388-24.385,42.881-49.648c-0.026-1.32-0.137-2.611-0.268-3.893c12.134-3.459,24.051-7.881,35.649-13.229
				c0.551,1.126,1.123,2.247,1.779,3.333c12.533,20.801,39.47,25.911,60.165,11.411c20.695-14.5,27.312-43.116,14.779-63.918
				c-0.643-1.064-1.346-2.061-2.06-3.044c9.165-9.165,17.748-19.118,25.679-29.794
				C1081.092,1323.765,1082.133,1324.394,1083.231,1324.952z M818.93,1328.305c-76.979-39.084-105.076-138.338-62.756-221.691
				c42.32-83.353,139.031-119.239,216.01-80.155c76.979,39.084,105.076,138.338,62.756,221.691
				C992.619,1331.503,895.909,1367.389,818.93,1328.305z"/>
		</g>
		<g>
			
				<linearGradient id="SVGID_00000117672284041186669430000002736077443102057371_" gradientUnits="userSpaceOnUse" x1="1709.7134" y1="836.921" x2="1230.5554" y2="701.3293">
				<stop  offset="0" style="stop-color:#311944"/>
				<stop  offset="1" style="stop-color:#A03976"/>
			</linearGradient>
			<path style="fill:url(#SVGID_00000117672284041186669430000002736077443102057371_);" d="M1339.348,802.394
				c15.345,7.791,34.624,0.637,43.06-15.978c8.436-16.616,2.835-36.402-12.51-44.192c-0.795-0.404-1.606-0.743-2.42-1.068
				c2.851-9.194,5.001-18.46,6.442-27.729c0.88-0.003,1.762-0.017,2.659-0.097c17.507-1.561,31.402-17.648,31.036-35.934
				c-0.366-18.285-14.856-31.844-32.364-30.283c-0.916,0.082-1.814,0.226-2.708,0.385c-1.829-9.061-4.334-17.913-7.495-26.48
				c0.806-0.471,1.606-0.958,2.39-1.507c14.978-10.493,19.767-31.205,10.696-46.26c-9.071-15.055-28.568-18.752-43.546-8.259
				c-0.768,0.538-1.49,1.118-2.203,1.708c-5.917-6.54-12.405-12.601-19.425-18.132c0.493-0.81,0.977-1.629,1.414-2.49
				c8.436-16.616,19.46-34.766,3.995-42.315c-35.776-17.465-51.128-2.514-59.565,14.101c-0.437,0.861-0.814,1.735-1.176,2.61
				c-8.608-2.403-17.33-4.065-26.101-4.982c0.055-0.924,0.097-1.849,0.079-2.786c-0.367-18.285,5.058-28.18-12.515-28.522
				c-38.322-0.745-51.252,15.888-50.885,34.173c0.019,0.956,0.099,1.89,0.194,2.818c-8.782,2.503-17.407,5.704-25.802,9.575
				c-0.399-0.816-0.813-1.626-1.287-2.414c-9.071-15.055-28.568-18.752-43.546-8.258c-14.979,10.495-19.767,31.205-10.696,46.26
				c0.464,0.772,0.974,1.493,1.491,2.204c-6.633,6.634-12.845,13.838-18.585,21.564c-0.742-0.466-1.495-0.92-2.29-1.324
				c-15.345-7.791-34.624-0.637-43.06,15.978c-8.436,16.615-2.835,36.401,12.51,44.192c0.795,0.404,1.607,0.743,2.42,1.067
				c-2.851,9.194-5.001,18.46-6.442,27.73c-0.88,0.003-1.762,0.017-2.659,0.096c-17.508,1.561-31.403,17.649-31.037,35.935
				c0.367,18.285,14.857,31.843,32.364,30.282c0.915-0.081,1.814-0.225,2.707-0.385c1.828,9.062,4.334,17.913,7.495,26.481
				c-0.805,0.471-1.607,0.958-2.389,1.506c-14.979,10.494-19.767,31.206-10.696,46.261c9.071,15.055,39.103,22.05,54.081,11.556
				c0.767-0.538-9.046-4.416-8.333-5.005c5.916,6.54,12.405,12.601,19.425,18.132c-0.493,0.809-0.977,1.629-1.414,2.49
				c-8.436,16.615-2.835,36.401,12.51,44.192c15.345,7.791,34.624,0.637,43.06-15.978c0.437-0.861,0.813-1.735,1.176-2.611
				c8.608,2.404,17.33,4.065,26.101,4.983c-0.055,0.924-0.097,1.849-0.079,2.786c0.367,18.285,14.857,31.843,32.364,30.282
				c17.507-1.561,31.403-17.649,31.036-35.934c-0.019-0.956-0.099-1.89-0.194-2.818c8.782-2.503,17.407-5.703,25.802-9.575
				c0.399,0.815,0.813,1.626,1.287,2.413c9.071,15.055,28.567,18.753,43.546,8.259c14.979-10.494,19.767-31.205,10.696-46.261
				c-0.465-0.77-0.974-1.492-1.491-2.203c6.633-6.634,12.845-13.837,18.585-21.564
				C1337.801,801.536,1338.553,801.991,1339.348,802.394z M1148.056,804.822c-55.715-28.288-76.05-100.125-45.42-160.452
				c30.63-60.328,100.626-86.302,156.341-58.014c55.715,28.288,76.051,100.125,45.421,160.452
				C1273.767,807.136,1203.771,833.109,1148.056,804.822z"/>
			
				<linearGradient id="SVGID_00000001652340773915545150000005322968860012250796_" gradientUnits="userSpaceOnUse" x1="1708.4572" y1="841.3586" x2="1229.2981" y2="705.7666">
				<stop  offset="0" style="stop-color:#311944"/>
				<stop  offset="1" style="stop-color:#A03976"/>
			</linearGradient>
			<path style="fill:url(#SVGID_00000001652340773915545150000005322968860012250796_);" d="M1376.579,713.33
				c17.507-1.561,31.402-17.649,31.036-35.934c-0.366-18.285-14.856-31.844-32.364-30.282c-0.915,0.081-1.814,0.226-2.708,0.385
				c-1.828-9.062-4.334-17.913-7.495-26.48c0.806-0.471,1.606-0.958,2.39-1.507c14.978-10.493,33.509-35.85,22.942-49.894
				c-20.057-26.656-40.813-15.118-55.792-4.625c-0.768,0.538-1.49,1.118-2.203,1.707c-5.917-6.54-12.405-12.6-19.425-18.132
				c0.493-0.809,0.977-1.628,1.414-2.489c4.591-9.043,4.996-19.013,1.964-27.49c-14.468,25.464-28.74,51.034-42.757,76.743
				c44.448,32.571,58.598,96.756,30.816,151.477c-23.543,46.371-70.343,72.408-116.039,69.146
				c-2.039,5.286-4.04,10.602-6.223,15.837c-5.923,14.208-12.653,28.123-19.391,42.02c4.238,0.799,8.494,1.428,12.762,1.875
				c-0.055,0.924-0.097,1.85-0.079,2.787c0.367,18.285,11.468,33.821,43.198,32.138c17.552-0.931,20.569-19.504,20.202-37.789
				c-0.019-0.956-0.099-1.89-0.193-2.818c8.782-2.503,17.407-5.704,25.801-9.575c0.399,0.816,0.813,1.626,1.287,2.413
				c9.071,15.056,40.54,21.452,55.519,10.958c14.979-10.495,7.794-33.905-1.277-48.96c-0.465-0.771-0.974-1.492-1.49-2.204
				c6.633-6.633,12.845-13.837,18.585-21.564c0.743,0.466,1.495,0.921,2.29,1.323c15.345,7.792,34.624,0.637,43.06-15.978
				c8.436-16.615,2.835-36.401-12.51-44.192c-0.795-0.404-1.606-0.743-2.42-1.068c2.851-9.194,5.001-18.46,6.442-27.729
				C1374.8,713.424,1375.682,713.409,1376.579,713.33z"/>
			
				<linearGradient id="SVGID_00000102536190588117608110000001080344042376817583_" gradientUnits="userSpaceOnUse" x1="1217.9978" y1="534.1188" x2="1225.4908" y2="1139.1896">
				<stop  offset="0" style="stop-color:#FF9085"/>
				<stop  offset="1" style="stop-color:#FB6FBB"/>
			</linearGradient>
			<path style="fill:url(#SVGID_00000102536190588117608110000001080344042376817583_);" d="M1355.853,804.271
				c15.345,7.791,34.624,0.637,43.06-15.979c8.436-16.616,2.836-36.401-12.51-44.192c-0.795-0.404-1.606-0.743-2.42-1.067
				c2.851-9.194,5-18.46,6.442-27.73c0.88-0.002,1.762-0.017,2.659-0.097c17.507-1.561,31.402-17.648,31.036-35.933
				c-0.366-18.286-14.856-31.844-32.364-30.283c-0.915,0.082-1.814,0.226-2.708,0.385c-1.829-9.062-4.334-17.913-7.495-26.48
				c0.805-0.471,1.607-0.958,2.39-1.506c14.978-10.494,19.767-31.206,10.696-46.261c-9.071-15.055-28.568-18.752-43.546-8.258
				c-0.768,0.538-1.49,1.118-2.203,1.708c-5.916-6.54-12.405-12.6-19.425-18.132c0.494-0.809,0.977-1.629,1.414-2.49
				c8.436-16.616,2.835-36.402-12.51-44.192c-15.345-7.791-34.624-0.637-43.06,15.978c-0.437,0.86-0.814,1.735-1.176,2.61
				c-8.608-2.404-17.33-4.065-26.101-4.982c0.054-0.924,0.097-1.849,0.079-2.786c-0.367-18.285-14.857-31.843-32.364-30.282
				c-17.508,1.561-31.403,17.649-31.036,35.933c0.019,0.956,0.099,1.89,0.194,2.818c-8.782,2.503-17.406,5.704-25.802,9.575
				c-0.399-0.815-0.813-1.626-1.287-2.414c-9.071-15.055-28.568-18.753-43.546-8.258c-14.979,10.495-19.767,31.206-10.696,46.261
				c0.465,0.771,0.974,1.493,1.491,2.204c-6.633,6.634-12.845,13.837-18.585,21.565c-0.742-0.466-1.495-0.921-2.29-1.324
				c-15.345-7.792-34.624-0.637-43.06,15.978c-8.437,16.616-2.835,36.401,12.51,44.192c0.795,0.404,1.607,0.743,2.421,1.068
				c-2.851,9.194-5.001,18.46-6.442,27.729c-0.879,0.003-1.763,0.017-2.659,0.096c-17.507,1.562-31.403,17.649-31.036,35.935
				c0.366,18.285,14.857,31.842,32.364,30.282c0.915-0.081,1.814-0.225,2.707-0.385c1.828,9.062,4.334,17.914,7.496,26.481
				c-0.805,0.471-1.607,0.958-2.389,1.507c-14.979,10.493-19.767,31.205-10.696,46.26c9.071,15.055,28.568,18.752,43.545,8.259
				c0.768-0.538,1.49-1.119,2.203-1.709c5.916,6.54,12.405,12.601,19.425,18.133c-0.493,0.809-0.977,1.629-1.414,2.49
				c-8.436,16.616-2.835,36.401,12.51,44.192c15.345,7.791,34.624,0.638,43.06-15.979c0.437-0.86,0.813-1.735,1.176-2.61
				c8.608,2.403,17.331,4.065,26.101,4.982c-0.055,0.924-0.097,1.849-0.079,2.787c0.367,18.284,14.857,31.843,32.364,30.282
				c17.507-1.56,31.403-17.649,31.036-35.934c-0.019-0.956-0.099-1.89-0.194-2.818c8.782-2.503,17.407-5.704,25.802-9.575
				c0.399,0.815,0.813,1.626,1.287,2.412c9.071,15.055,28.567,18.753,43.545,8.259c14.979-10.494,19.767-31.205,10.697-46.261
				c-0.465-0.771-0.974-1.492-1.491-2.204c6.633-6.633,12.845-13.837,18.586-21.564
				C1354.305,803.412,1355.058,803.867,1355.853,804.271z M1164.561,806.699c-55.715-28.288-76.051-100.124-45.421-160.453
				c30.63-60.328,100.625-86.301,156.341-58.013s76.051,100.125,45.421,160.453C1290.271,809.013,1220.276,834.986,1164.561,806.699
				z"/>
		</g>
		<g>
			
				<linearGradient id="SVGID_00000127723530153312643180000013941491103541805445_" gradientUnits="userSpaceOnUse" x1="1832.3723" y1="1747.194" x2="1872.1571" y2="1868.6244">
				<stop  offset="0" style="stop-color:#FFC444"/>
				<stop  offset="0.9964" style="stop-color:#F36F56"/>
			</linearGradient>
			<path style="fill:url(#SVGID_00000127723530153312643180000013941491103541805445_);" d="M1815.654,1834.262
				c0,0,0-29.678-7.962-40.535s-23.163-15.816-25.334-24.556c-2.172-8.741,25.334,10.803,35.468,15.146
				c10.134,4.343,65.119-25.117,70.213-28.23c13.029-7.962-5.067,23.887-23.887,33.296c-18.82,9.41-28.949,10.134-28.949,10.134
				l5.063,34.744h-20.268H1815.654z"/>
			
				<linearGradient id="SVGID_00000164507243794146926000000010792806960106605500_" gradientUnits="userSpaceOnUse" x1="1587.5931" y1="716.2812" x2="1594.9556" y2="2998.9534">
				<stop  offset="0" style="stop-color:#AA80F9"/>
				<stop  offset="0.9964" style="stop-color:#6165D7"/>
			</linearGradient>
			<path style="fill:url(#SVGID_00000164507243794146926000000010792806960106605500_);" d="M1339.473,1755.067
				c25.731-25.359,74.814-21.482,104.359-11.859c55.571,18.099,59.99,62.368,142.862,128.564
				c39.716,31.725,60.138,47.584,87.757,47.436c67.62-0.362,113.596-95.727,120.962-111.475c22.117,3.294,44.235,6.588,66.352,9.882
				c10.49,115.829-53.743,224.493-156.481,267.619c-158.133,66.377-293.59-70.318-299.401-76.384
				C1332.784,1932.533,1292.938,1800.927,1339.473,1755.067z"/>
			
				<linearGradient id="SVGID_00000156551009153442890450000006563181105515617189_" gradientUnits="userSpaceOnUse" x1="1552.0598" y1="3315.3093" x2="1648.4323" y2="3315.3093" gradientTransform="matrix(-0.996 0.0899 0.0899 0.996 2457.2842 -161.2849)">
				<stop  offset="0" style="stop-color:#444B8C"/>
				<stop  offset="0.9964" style="stop-color:#26264F"/>
			</linearGradient>
			<path style="fill:url(#SVGID_00000156551009153442890450000006563181105515617189_);" d="M1119.368,3266.052
				c-4.999,4.598-5.313,15.335-5.518,22.353c-0.094,3.135-0.139,4.703,0.278,5.784c3.033,7.878,18.663,7.77,43.246,8.772
				c38.849,1.584,50.523,3.921,53.194-2.009c2.502-5.558-4.889-13.955-5.72-14.88c-4.468-4.971-9.677-6.561-19.718-9.199
				c-18.582-4.881-31.089-7.411-34.876-8.178C1126.605,3263.906,1122.65,3263.034,1119.368,3266.052z"/>
			
				<linearGradient id="SVGID_00000013184910948227768760000018196871295119219336_" gradientUnits="userSpaceOnUse" x1="1117.6504" y1="3275.7429" x2="1159.933" y2="3188.2278" gradientTransform="matrix(-0.9976 0.0696 0.0696 0.9976 2041.3982 -61.4496)">
				<stop  offset="0" style="stop-color:#FFC444"/>
				<stop  offset="0.9964" style="stop-color:#F36F56"/>
			</linearGradient>
			<path style="fill:url(#SVGID_00000013184910948227768760000018196871295119219336_);" d="M1146.607,3227.309l1.523,44.219
				c-1.21,2.068-14.632,7.747-24.732,1.726l-7.63-43.794L1146.607,3227.309z"/>
			
				<linearGradient id="SVGID_00000052098726486870753430000015211186871273834371_" gradientUnits="userSpaceOnUse" x1="1158.9413" y1="3303.5679" x2="1261.3276" y2="3303.5679" gradientTransform="matrix(-0.977 0.2135 0.2135 0.977 1968.6593 -211.2321)">
				<stop  offset="0" style="stop-color:#444B8C"/>
				<stop  offset="0.9964" style="stop-color:#26264F"/>
			</linearGradient>
			<path style="fill:url(#SVGID_00000052098726486870753430000015211186871273834371_);" d="M1446.607,3259.879
				c-6.678,6.631-8.799,19.381-3.65,25.991c5.06,6.5,13.416,2.272,36.371,4.181c24.588,2.047,30.71,8.206,47.692,4.479
				c6.861-1.509,19.044-5.407,19.074-10.248c0.021-3.404-5.964-5.48-25.909-13.364c-28.309-11.189-28.154-11.71-34.22-13.049
				C1470.728,3254.505,1455.428,3251.125,1446.607,3259.879z"/>
			
				<linearGradient id="SVGID_00000132784030400692557240000011022336946359261825_" gradientUnits="userSpaceOnUse" x1="985.6792" y1="3297.1633" x2="1028.8558" y2="3207.7976" gradientTransform="matrix(-0.9894 0.1455 0.1455 0.9894 1975.2667 -129.3392)">
				<stop  offset="0" style="stop-color:#FFC444"/>
				<stop  offset="0.9964" style="stop-color:#F36F56"/>
			</linearGradient>
			<path style="fill:url(#SVGID_00000132784030400692557240000011022336946359261825_);" d="M1464.525,3220.551l10.166,41.748
				c-1.051,2.153-14,8.838-24.53,3.607l-16.222-40.858L1464.525,3220.551z"/>
			
				<linearGradient id="SVGID_00000028318572767619164830000013155206437665598864_" gradientUnits="userSpaceOnUse" x1="1916.6904" y1="3018.0381" x2="1643.5912" y2="2402.4072" gradientTransform="matrix(0.9986 0.0531 -0.0531 0.9986 -236.7776 -20.0256)">
				<stop  offset="0" style="stop-color:#40447E"/>
				<stop  offset="0.9964" style="stop-color:#3C3B6B"/>
			</linearGradient>
			<path style="fill:url(#SVGID_00000028318572767619164830000013155206437665598864_);" d="M1402.661,2314.78
				c-5.579,138.188-4.419,293.957,9.215,463.851c13.473,167.914,36.773,320.226,63.885,454.513
				c-15.987,3.402-31.971,6.803-47.958,10.204c-38-39.41-85.317-100.785-105.243-185.02c-12.366-52.281-5.924-78.465-12.136-142.291
				c-9.891-101.625-37.984-156.086-65.597-239.081c-24.814-74.579-53.035-183.596-63.6-327.871
				C1255.04,2337.651,1328.85,2326.215,1402.661,2314.78z"/>
			
				<linearGradient id="SVGID_00000137101337360083782630000009059030450838474130_" gradientUnits="userSpaceOnUse" x1="1874.3389" y1="3036.8235" x2="1601.2401" y2="2421.1938" gradientTransform="matrix(0.9986 0.0531 -0.0531 0.9986 -236.7776 -20.0256)">
				<stop  offset="0" style="stop-color:#40447E"/>
				<stop  offset="0.9964" style="stop-color:#3C3B6B"/>
			</linearGradient>
			<path style="opacity:0.3;fill:url(#SVGID_00000137101337360083782630000009059030450838474130_);" d="M1380.699,2960.589
				c-17.616-69.71-51.532-88.138-52.752-153.94c-0.862-46.545,15.864-50.354,14.746-94.906
				c-1.696-67.576-41.29-103.002-61.186-145.506c-21.013-44.889-29.074-116.997,27.512-236.949
				c-42.596,6.599-85.194,13.2-127.792,19.798c10.564,144.274,38.786,253.292,63.6,327.87
				c27.614,82.995,55.706,137.457,65.597,239.081c6.212,63.826-0.23,90.01,12.136,142.29
				c19.925,84.235,67.243,145.609,105.243,185.021c4.066-0.866,8.132-1.729,12.198-2.595c-41.08-49.016-55.581-92.795-59.274-128.32
				C1374.719,3054.637,1398.459,3030.876,1380.699,2960.589z"/>
			
				<linearGradient id="SVGID_00000077304242878547257950000012225633695347784849_" gradientUnits="userSpaceOnUse" x1="1308.061" y1="3135.8811" x2="1034.9633" y2="2520.2534" gradientTransform="matrix(0.9976 -0.0696 0.0696 0.9976 -159.9269 92.3884)">
				<stop  offset="0" style="stop-color:#40447E"/>
				<stop  offset="0.9964" style="stop-color:#3C3B6B"/>
			</linearGradient>
			<path style="fill:url(#SVGID_00000077304242878547257950000012225633695347784849_);" d="M1242.873,2306.171
				c-18.993,175.117-36.448,353.595-52.148,535.344c-11.783,136.383-22.275,271.099-31.561,404.098
				c-16.204,1.13-32.41,2.262-48.614,3.391c-14.015-29.789-32.32-75.168-43.454-132.676c-13.523-69.844-7.364-110.566-11.1-182.406
				c-4.195-80.575-15.553-98.685-31.94-200.919c-33.259-207.482-49.889-311.225,2.785-372.403
				C1043.938,2340.738,1096.852,2291.45,1242.873,2306.171z"/>
			
				<linearGradient id="SVGID_00000128445736748514665580000007551846203497293497_" gradientUnits="userSpaceOnUse" x1="1145.6757" y1="717.7067" x2="1153.0381" y2="3000.3806">
				<stop  offset="0" style="stop-color:#AA80F9"/>
				<stop  offset="0.9964" style="stop-color:#6165D7"/>
			</linearGradient>
			<path style="fill:url(#SVGID_00000128445736748514665580000007551846203497293497_);" d="M823.095,1761.712
				c87.531-29.694,221.09-62.607,384.442-55.905c94.63,3.881,175.987,20.104,240.451,38.149
				c8.725,48.742,17.449,97.486,26.173,146.228c2.013,48.873,2.671,115.078-2.806,193.303
				c-5.476,78.218-10.852,79.397-23.411,189.812c-20.475,180.022-11.89,227.052-48.065,248.683
				c-23.529,14.07-32.044-2.908-152.127-14.787c-80.521-7.966-121.614-11.668-162.386,2.138
				c-55.522,18.799-74.097,50.346-97.004,40.088c-21.967-9.84-24.771-47.762-27.437-113.878
				c-4.111-101.992-3.872-171.316-4.253-196.13c-1.753-113.854-30.599-200.78-67.544-312.109
				C866.022,1857.673,841.687,1801.321,823.095,1761.712z"/>
			<g>
				
					<linearGradient id="SVGID_00000133514674681529069210000000896953583129160848_" gradientUnits="userSpaceOnUse" x1="1757.7657" y1="1354.7101" x2="1768.5153" y2="1068.3809" gradientTransform="matrix(0.8945 0.4469 -0.4469 0.8945 172.0971 -183.7399)">
					<stop  offset="0" style="stop-color:#FFC444"/>
					<stop  offset="0.9964" style="stop-color:#F36F56"/>
				</linearGradient>
				<path style="fill:url(#SVGID_00000133514674681529069210000000896953583129160848_);" d="M1196.7,1593.019
					c-1.283,28.626-5.682,51.148-9.529,66.528c-4.407,17.622-7.144,22.089-10.524,25.652c-5.087,5.365-12.596,9.692-54.138,17.677
					c-22.606,4.344-25.469,4.041-26.081,6.228c-2.977,10.674,55.905,50.725,119.234,45.198
					c38.759-3.382,74.928-23.468,73.393-35.106c-1.545-11.716-40.302-7.536-50.64-29.13c-7.19-15.021,2.844-35.27,14.314-51.871
					C1243.522,1618.492,1205.905,1612.72,1196.7,1593.019z"/>
				<g>
					
						<linearGradient id="SVGID_00000005986543919885091030000001854661753950714278_" gradientUnits="userSpaceOnUse" x1="563.0446" y1="1514.608" x2="490.1627" y2="1329.5012" gradientTransform="matrix(-0.9988 -0.0494 -0.0494 0.9988 1790.5552 251.6029)">
						<stop  offset="0" style="stop-color:#311944"/>
						<stop  offset="1" style="stop-color:#6B3976"/>
					</linearGradient>
					<path style="fill:url(#SVGID_00000005986543919885091030000001854661753950714278_);" d="M1267.499,1608.13
						c9.721-11.577,11.401-32.601,1.648-46.467c-8.393-11.932-22.472-14.318-30.901-15.751
						c-24.426-4.145-55.981,4.464-67.972,26.509c-7.103,13.065,5.24,41.653,7.138,46.776c2.151,5.792,6.491,7.971,10.376,12.471
						c5.383,6.241,13.801,16.155,27.522,32.718c1.38-4.599,3.407-10.274,6.472-16.38c1.18-2.351,5.906-11.523,12.715-18.975
						C1248.135,1614.093,1258.283,1619.102,1267.499,1608.13z"/>
					
						<linearGradient id="SVGID_00000137851506411660070080000000620600155960339351_" gradientUnits="userSpaceOnUse" x1="925.2125" y1="1390.0894" x2="921.8608" y2="1660.1359" gradientTransform="matrix(0.9999 -0.0118 0.0118 0.9999 282.2742 227.3177)">
						<stop  offset="0" style="stop-color:#FFC444"/>
						<stop  offset="0.9964" style="stop-color:#F36F56"/>
					</linearGradient>
					<path style="fill:url(#SVGID_00000137851506411660070080000000620600155960339351_);" d="M1195.245,1650.004
						c0,0,14.747,27.366,47.027,26.986c28.9-0.342,36.556-64.707,18.89-79.391c-5.895-4.9-18.085-7.454-28.228-5.184
						c-5.991,1.341-8.121,3.687-17.953,5.685c-9.069,1.846-11.542,0.72-14.364,2.847c-3.528,2.664-6.373,9.5-1.738,28.682
						c-5.2-5.854-11.681-8.342-16.472-6.385c-0.764,0.314-2.813,1.554-4.035,3.533
						C1173.952,1633.94,1180.19,1643.721,1195.245,1650.004z"/>
					
						<linearGradient id="SVGID_00000085965103120871698830000015261530639815426724_" gradientUnits="userSpaceOnUse" x1="540.7824" y1="1523.4735" x2="467.8244" y2="1338.1733" gradientTransform="matrix(-0.9988 -0.0494 -0.0494 0.9988 1790.5552 251.6029)">
						<stop  offset="0" style="stop-color:#311944"/>
						<stop  offset="1" style="stop-color:#6B3976"/>
					</linearGradient>
					<path style="fill:url(#SVGID_00000085965103120871698830000015261530639815426724_);" d="M1199.52,1597.015
						c1.333,1.11-3.188,6.064-3.894,13.384c-1.375,14.203,12.127,32.061,26.751,34.292c8.646,1.318,11.314-3.793,25.761-4.546
						c8.947-0.466,16.292,1.06,20.896,2.326c3.684,15.854-1.392,31.196-12.214,37.863c-11.65,7.178-25.752,1.697-31.649-0.595
						c-3.943-1.533-16.584-6.419-22.68-18.574c-6.35-12.667,0.918-19.711-6.676-28.453c-3.831-4.409-9.058-6.509-13.809-14.904
						c-1.29-2.281-2.126-4.283-2.63-5.625C1187.226,1604.703,1197.588,1595.407,1199.52,1597.015z"/>
					
						<linearGradient id="SVGID_00000026845463772946509040000005030254564516742813_" gradientUnits="userSpaceOnUse" x1="469.3793" y1="1411.8248" x2="473.1735" y2="1445.6492" gradientTransform="matrix(-0.9988 -0.0494 -0.0494 0.9988 1790.5552 251.6029)">
						<stop  offset="0" style="stop-color:#FFC444"/>
						<stop  offset="1" style="stop-color:#F36F56"/>
					</linearGradient>
					<path style="fill:url(#SVGID_00000026845463772946509040000005030254564516742813_);" d="M1258.271,1647.701
						c0,0-6.393,2.92-17.11,1.743c-0.521-0.058-1.106,0.065-1.187,0.332c-0.301,1.007,6.351,5.946,12.8,4.499
						c4.579-1.031,8.317-5.114,7.767-6.233C1260.309,1647.57,1259.285,1647.576,1258.271,1647.701z"/>
				</g>
			</g>
			
				<linearGradient id="SVGID_00000152256417422598441440000016597446782569384597_" gradientUnits="userSpaceOnUse" x1="908.366" y1="2262.4385" x2="1427.3571" y2="2262.4385">
				<stop  offset="0" style="stop-color:#AA80F9"/>
				<stop  offset="0.9964" style="stop-color:#6165D7"/>
			</linearGradient>
			<path style="opacity:0.3;fill:url(#SVGID_00000152256417422598441440000016597446782569384597_);" d="M1353.192,2462.888
				c-59.066-25.191-58.733-77.345-113.9-99.1c-78.72-31.045-165.674,41.127-179.255,21.121
				c-14.134-20.816,89.722-84.678,75.894-147.638c-10.991-50.036-83.494-41.155-122.339-109.642
				c-36.85-64.968-1.147-125.046-33.77-147.62c-11.7-8.097-32.335-11.289-71.456,5.936c27.297,85.198,46.872,160.329,48.306,253.466
				c0.381,24.814,0.142,94.138,4.253,196.13c2.665,66.116,5.469,104.038,27.437,113.878c22.907,10.259,41.483-21.289,97.004-40.088
				c40.773-13.806,81.866-10.104,162.386-2.138c120.083,11.879,128.597,28.857,152.127,14.787
				c15.323-9.163,22.606-22.936,27.478-49.393C1403.284,2475.189,1377.746,2473.358,1353.192,2462.888z"/>
			<g>
				
					<linearGradient id="SVGID_00000078046163219315940760000004443337724811302027_" gradientUnits="userSpaceOnUse" x1="1224.7216" y1="2264.6086" x2="1055.9642" y2="2136.6184">
					<stop  offset="0.0036" style="stop-color:#26264F"/>
					<stop  offset="1" style="stop-color:#444B8C"/>
				</linearGradient>
				<path style="fill:url(#SVGID_00000078046163219315940760000004443337724811302027_);" d="M1251.082,1985.504l-241.898,20.295
					c-2.55,0.214-4.573,2.045-5.117,4.63l-68.626,326.048c-0.982,4.665,5.325,16.483,9.828,16.027l232.823-30.991
					c2.471-0.253,4.389-1.952,4.966-4.4l80.162-317.713C1264.334,1994.67,1255.961,1985.094,1251.082,1985.504z"/>
				
					<linearGradient id="SVGID_00000025442258217695436660000015604941329157973165_" gradientUnits="userSpaceOnUse" x1="-381.9668" y1="2189.834" x2="-758.757" y2="2390.3835" gradientTransform="matrix(-0.9948 0.1018 0.1018 0.9948 349.6805 -26.8702)">
					<stop  offset="0.0036" style="stop-color:#26264F"/>
					<stop  offset="1" style="stop-color:#444B8C"/>
				</linearGradient>
				<path style="fill:url(#SVGID_00000025442258217695436660000015604941329157973165_);" d="M1256.165,1993.548l-242.344,19.998
					c-2.555,0.211-4.581,2.042-5.125,4.629l-68.708,326.358c-0.983,4.67,3.113,9.577,7.619,9.123l235.477-23.769
					c2.476-0.25,4.398-1.948,4.975-4.398l76.091-322.795C1265.265,1997.963,1261.054,1993.144,1256.165,1993.548z"/>
				
					<linearGradient id="SVGID_00000032626241346474228760000002344004499167776654_" gradientUnits="userSpaceOnUse" x1="1146.6675" y1="2161.7456" x2="1144.286" y2="1960.9125">
					<stop  offset="0" style="stop-color:#FF9085"/>
					<stop  offset="1" style="stop-color:#FB6FBB"/>
				</linearGradient>
				<path style="fill:url(#SVGID_00000032626241346474228760000002344004499167776654_);" d="M1189.264,2008.843l5.943-26.905
					c0.537-2.429-1.541-4.89-4.031-4.777l-89.012,4.068c-1.511,0.069-2.714,1.146-2.973,2.663l-4.994,29.225
					c-0.411,2.401,1.65,4.736,4.03,4.565l88.119-6.317C1187.796,2011.261,1188.95,2010.264,1189.264,2008.843z"/>
				<path style="opacity:0.3;fill:#FFFFFF;" d="M1073.835,2275.094c8.695-53.608-21.409-88.115-0.674-129.777
					c29.498-59.262,114.13-36.455,133.298-85.048c5.182-13.135,5.865-32.471-7.608-61.994l57.313-4.725
					c4.889-0.403,9.1,4.41,7.985,9.144l-76.091,322.795c-0.577,2.452-2.498,4.146-4.975,4.397l-145.295,14.671
					C1060.467,2320.971,1070.302,2296.884,1073.835,2275.094z"/>
			</g>
			
				<linearGradient id="SVGID_00000101092270133022954470000011580153819662515104_" gradientUnits="userSpaceOnUse" x1="951.548" y1="2216.355" x2="984.379" y2="2316.5613">
				<stop  offset="0" style="stop-color:#FFC444"/>
				<stop  offset="0.9964" style="stop-color:#F36F56"/>
			</linearGradient>
			<path style="fill:url(#SVGID_00000101092270133022954470000011580153819662515104_);" d="M908.366,2243.05
				c0,0,25.687-1.611,26.973-4.602c1.286-2.991,29.359-29.224,28.439-20.94c-0.92,8.284-5.836,22.667-4.142,24.161
				c1.694,1.495,51.314-11.275,59.598-17.948c8.284-6.673,8.054,28.994-4.832,41.88c-12.886,12.886-38.888,14.497-56.146,15.647
				c-17.258,1.151-51.283-5.1-55.671-3.125C909.769,2263.33,908.366,2243.05,908.366,2243.05z"/>
			
				<linearGradient id="SVGID_00000155863907470089563390000006065831126193546936_" gradientUnits="userSpaceOnUse" x1="758.1876" y1="718.9569" x2="765.55" y2="3001.6316">
				<stop  offset="0" style="stop-color:#AA80F9"/>
				<stop  offset="0.9964" style="stop-color:#6165D7"/>
			</linearGradient>
			<path style="fill:url(#SVGID_00000155863907470089563390000006065831126193546936_);" d="M912.713,2229.374
				c2.033,23.773-3.143,39.92-11.782,50.993c-38.291,49.084-168.461,29.04-245.836-36.681
				c-57.274-48.647-87.609-124.197-86.502-191.896c2.162-132.101,124.563-261.566,306.661-306.319
				c26.971,80.577,53.943,147.405,80.914,227.983c-112.271,1.733-180.466,100.127-170.34,160.544
				C793.372,2179.007,845.875,2219.484,912.713,2229.374z"/>
		</g>
	</g>
</g>
</svg>
